<svg id="eC4DWQ0GPwo1" xmlns="http://www.w3.org/2000/svg" xmlns:xlink="http://www.w3.org/1999/xlink" viewBox="0 0 104 116" shape-rendering="geometricPrecision" text-rendering="geometricPrecision" width="104" height="116">
<style>
#eC4DWQ0GPwo1 {
    pointer-events: all;
  }
  #eC4DWQ0GPwo1:hover #eC4DWQ0GPwo5 {
    animation-name: eC4DWQ0GPwo5__m, eC4DWQ0GPwo5_f_p;
    animation-duration: 200ms;
    animation-fill-mode: forwards;
    animation-timing-function: linear;
    animation-direction: normal;
    animation-iteration-count: 1;
  }
  @keyframes eC4DWQ0GPwo5__m {
    0% {
      d: path(
        'M30.647397,15.83724C37.44943,11.97445,40.296599,9.006754,44.898349,8.754138C49.500099,8.501522,54.681718,10.035033,57.482999,11.16775C60.28428,12.300466,60.425517,12.956161,63.499999,14.764627C66.574481,16.573093,71.995262,19.42343,71.995262,30.73863C71.995262,36.966985,71.241662,46.384197,67.875698,51.00003C64.509734,55.615864,60.499999,58.485381,52.524699,59.76563C44.549399,61.045879,36.166729,59.425534,32.033099,57.120401C27.899468,54.815269,26.962353,52.005033,26.253109,49.06733C25.543865,46.129628,27.665064,44.60303,27.000599,41.52063C26.336134,38.43823,24.46125,37.507351,23.596287,35.59263C22.731324,33.677909,21.273364,29.807258,22.004067,26.88355C22.734769,23.959842,23.845364,19.70003,30.647397,15.83724Z'
      );
    }
    50% {
      d: path(
        'M30.647397,15.83724C37.44943,11.97445,40.296599,9.006754,44.898349,8.754138C49.500099,8.501522,54.681718,10.035033,57.482999,11.16775C60.28428,12.300466,60.425517,12.956161,63.499999,14.764627C66.574481,16.573093,71.995262,19.42343,71.995262,30.73863C71.995262,36.966985,71.241662,46.384197,67.875698,51.00003C64.509734,55.615864,60.499999,58.485381,52.524699,59.76563C44.549399,61.045879,36.166729,59.425534,32.033099,57.120401C27.899468,54.815269,26.962353,52.005033,26.253109,49.06733C25.543865,46.129628,27.665064,44.60303,27.000599,41.52063C26.336134,38.43823,24.46125,37.507351,23.596287,35.59263C22.731324,33.677909,21.273364,29.807258,22.004067,26.88355C22.734769,23.959842,23.845364,19.70003,30.647397,15.83724Z'
      );
      animation-timing-function: cubic-bezier(0.47, 0, 0.745, 0.715);
    }
    100% {
      d: path(
        'M3,0C4.244947,0.000002,27.203127,0,48.20778,0C69.212433,0,88.667559,0,93,0C94.656854,0,96,1.343146,96,3C96,7.260221,96,28.24463,96,54.18533C96,80.12603,96,98.98123,96,105C96,106.656854,94.656854,108,93,108C86.621738,108,69.708113,108,48.20778,108C26.707447,108,7.274199,108,3,108C1.343146,108,0,106.656854,0,105C-0.000001,100.093959,0,80.12583,0,54.18523C0,28.24463,0,4.590788,0,3C0,1.343146,1.343146,-0.000002,3,0Z'
      );
    }
  }
  @keyframes eC4DWQ0GPwo5_f_p {
    0% {
      fill: #eee7ff;
    }
    50% {
      fill: #eee7ff;
    }
    100% {
      fill: #f6f2ff;
    }
  }
</style>
<g transform="translate(4 4)"><g><g><path id="eC4DWQ0GPwo5" d="M30.647397,15.83724c6.802033-3.86279,9.649202-6.830486,14.250952-7.083102s9.783369,1.280895,12.58465,2.413612s2.942518,1.788411,6.017,3.596877s8.495263,4.658803,8.495263,15.974003c0,6.228355-.7536,15.645567-4.119564,20.2614s-7.375699,7.485351-15.350999,8.7656-16.35797-.340096-20.4916-2.645229-5.070746-5.115368-5.77999-8.053071s1.411955-4.4643.74749-7.5467-2.539349-4.013279-3.404312-5.928-2.322923-5.785372-1.59222-8.70908s1.841297-7.18352,8.64333-11.04631Z" fill="#eee7ff" fill-rule="evenodd"/></g><g transform="translate(16 2)"><rect width="64" height="64" rx="0" ry="0" fill="none" fill-rule="evenodd"/><g transform="translate(6 7)"><path d="M10.033099,12.04213l26.1429,2.7904-.4466,30.3528-23.0103-2.0103c0,0-3.081-2.8003-3.0984-3.1077-.064-1.1336.4124-28.0252.4124-28.0252Z" fill="#fff"/><polygon points="35.702299,44.70493 35.999799,14.50003 38.499699,11.50003 40.999999,11.00003 40.999999,40.24413 38.499999,42.00003" fill="#f6ebbb"/><path d="M9.999899,11.50003c-.4342-.8959-1.1101-1.3029-.4999-2l1.5-1l2.5-.5l14.0001,1l13.5,1.5c-.4577.5228-2.0355.327-3.5,2s-1.5322,2.452-2.0171,2.4944c-4.8838-.2158-15.7289-.7462-20.0382-1.1411-5.3867-.4936-4.6939-.804-5.4449-2.3533Z" fill="#fffbe8"/><path d="M35.950899,14.95173c-6.6057-.3868-18.8496-1.0994-21.9873-1.4514-3.5227-.2674-4.4772-1.7284-4.463841-3.0769.011741-1.1283,1.000041-2.4234,4.000041-2.4234l28,2v13.5v16c-2.4998,2-4.2917,3.6935-5.7705,5.6852l-21.5467-1.9744c-3.6826-.2108-4.5243-1.7108-4.682841-3.2108l.000441-14.2065v-15.0935" fill="none" fill-rule="evenodd" stroke="#000" stroke-width="1.25" stroke-linejoin="round"/><line x1="35.499799" y1="15.00003" x2="35.499799" y2="45.00003" fill="none" fill-rule="evenodd" stroke="#000" stroke-width="1.25"/><path d="M35.499799,15.00003c2.5002-2.5,3.0002-3,6.0002-4.5" fill="none" fill-rule="evenodd" stroke="#000" stroke-width="1.25"/><path d="M16.864699,31.10313c1.8955.8753,4.0062.1061,5.2699-.5935c1.8955,1.6265,4.8968,1.5728,6.1605,1.3427l-1.4788,4.6456-4.7388,2.0367-2.8433-1.5947c-2.0535-2.3254-4.265-6.7122-2.3695-5.8368Z" fill="#eee7ff"/><path d="M17.277099,31.23463c1.7079.1336,3.715-.1003,5.1722-.6081c1.4573.6988,3.446,1.1946,5.1539,1.2849" fill="none" fill-rule="evenodd" stroke="#000" stroke-width="1.25" stroke-linecap="round"/><path d="M16.194499,25.39763l-.528-3.659c.1999-1.3587,5.879-2.5584,6.8294-2.494.9258.0628,6.5527,1.9994,6.7527,3.3842l-.528,3.5898-12.5261-.821Z" fill="#fff" fill-rule="evenodd" stroke="#000" stroke-width="1.25" stroke-linecap="round"/><path d="M29.344199,28.31853v1.6434c0,.612-.4744,1.0779-1.0585,1.0396l-.1106-.0072-.0141,2.2844c-.0094,3.3338-4.3481,5.2001-5.783,5.0666l-.0134-.0017c-1.435-.0538-5.7736-2.4888-5.783-5.823v-2.2862l-.1231-.0081c-.5842-.0383-1.0586-.5664-1.0586-1.1784v-1.6434" fill="none" fill-rule="evenodd" stroke="#000" stroke-width="1.25" stroke-linecap="round"/><line x1="19.477299" y1="28.10343" x2="20.282699" y2="28.15623" fill="none" fill-rule="evenodd" stroke="#000" stroke-width="1.25" stroke-linecap="round"/><line x1="24.229199" y1="28.41483" x2="25.034599" y2="28.46763" fill="none" fill-rule="evenodd" stroke="#000" stroke-width="1.25" stroke-linecap="round"/></g></g></g></g></svg>
